# xmcd
#
# Track frame offsets:
#       150
#       1516
#       7950
#       11935
#       15293
#       20630
#       23880
#       28304
#       31171
#       35038
#       41461
#       48299
#       53681
#       58067
#       61955
#       65592
#       67059
#       68369
#       69547
#       70739
#       71847
#       73098
#       79539
#       92120
#       104837
#       106248
#       108429
#       109652
#       110687
#       111872
#       112876
#       114106
#       115796
#       118183
#       120305
#       122685
#       124650
#       126664
#       130203
#       137765
#       148500
#       151935
#       156774
#       160582
#       173076
#       185650
#       192470
#       194912
#       206003
#       216986
#       219996
#       222881
#       223860
#       227647
#       234126
#       237502
#       247070
#       256691
#       258008
#       264208
#       276538
#       288851
#       299471
#       309705
#       316093
#
# Disc length: 4340 seconds
#
# Revision: 0
# Processed by: cddbd v1.5.2PL0 Copyright (c) Steve Scherf et al.
# Submitted via: CD-DA_X-Tractor v0.24
#
DISCID=bf10f241
DTITLE=John McCarthy - Learn To Play Blues Guitar Level2
DYEAR=2005
DGENRE=
TTITLE0=Introduction
TTITLE1=Tuning
TTITLE2=Scales key of E 1st position
TTITLE3=Scales key of E 1st position 12th fret
TTITLE4=Scales key of E 2nd position
TTITLE5=Scales key of E 3rd position
TTITLE6=Scales key of E 4th position
TTITLE7=Scales key of E 5th position
TTITLE8=Rhythm slow Key of E
TTITLE9=Rhythm Key of E BDR
TTITLE10=Rhythm Key of E BD
TTITLE11=Bending
TTITLE12=Lead Key of E slow
TTITLE13=Lead Key of E BDRL
TTITLE14=Lead Key of E BDR
TTITLE15=A9th
TTITLE16=AM7th
TTITLE17=Am7th
TTITLE18=D9th
TTITLE19=DM7th
TTITLE20=Dm7th
TTITLE21=Fuze slow
TTITLE22=Fuze BDR
TTITLE23=Fuze BD
TTITLE24=Rakes
TTITLE25=Pick and Finger
TTITLE26=Riffs1
TTITLE27=RIffs2
TTITLE28=Riffs3
TTITLE29=Riffs4
TTITLE30=Riffs5
TTITLE31=Skipping Strings
TTITLE32=C 1st position
TTITLE33=C 2nd position
TTITLE34=C 3rd position
TTITLE35=C 4th position
TTITLE36=C 5th position
TTITLE37=Fast Blues C Slow
TTITLE38=Fast Blues C BDR
TTITLE39=Fast Blues C BD
TTITLE40=Improvisation
TTITLE41=16th note lead pattern key of D
TTITLE42=Blues progression key of D
TTITLE43=Blues progression key of D BDR
TTITLE44=Blues progression key of D BD
TTITLE45=Old school blues turnarounds
TTITLE46=Modern blues circle of fourths
TTITLE47=Modern blues circle of fourths BDR
TTITLE48=Modern blues circle of fourths BD
TTITLE49=Natural minor scales key of A 1st position
TTITLE50=Natural minor scales key of A 2nd position
TTITLE51=Slide tech 1
TTITLE52=Slide tech BDR
TTITLE53=Slide tech BD
TTITLE54=E blues riff slow
TTITLE55=E blues riff BDR
TTITLE56=E blues riff BD
TTITLE57=Conclusion
TTITLE58=Open string blues Key of E BD - BT
TTITLE59=Blues Rock Key of D BD - BT
TTITLE60=jazz Blues Fuze BD - BT
TTITLE61=Modern blues progression circle of fourths BD -BT
TTITLE62=Fast blues in C BD - BT
TTITLE63=Slide techniques BD - BT
TTITLE64=E blues riff rhytm BD - BT
EXTD=
EXTT0=
EXTT1=
EXTT2=
EXTT3=
EXTT4=
EXTT5=
EXTT6=
EXTT7=
EXTT8=
EXTT9=
EXTT10=
EXTT11=
EXTT12=
EXTT13=
EXTT14=
EXTT15=
EXTT16=
EXTT17=
EXTT18=
EXTT19=
EXTT20=
EXTT21=
EXTT22=
EXTT23=
EXTT24=
EXTT25=
EXTT26=
EXTT27=
EXTT28=
EXTT29=
EXTT30=
EXTT31=
EXTT32=
EXTT33=
EXTT34=
EXTT35=
EXTT36=
EXTT37=
EXTT38=
EXTT39=
EXTT40=
EXTT41=
EXTT42=
EXTT43=
EXTT44=
EXTT45=
EXTT46=
EXTT47=
EXTT48=
EXTT49=
EXTT50=
EXTT51=
EXTT52=
EXTT53=
EXTT54=
EXTT55=
EXTT56=
EXTT57=
EXTT58=
EXTT59=
EXTT60=
EXTT61=
EXTT62=
EXTT63=
EXTT64=
PLAYORDER=
